<?xml version="1.0" encoding="UTF-8" standalone="no"?>
<!-- Created with Inkscape (http://www.inkscape.org/) -->

<svg
   width="10.583333mm"
   height="10.583333mm"
   viewBox="0 0 10.583333 10.583333"
   version="1.1"
   id="svg5"
   xmlns="http://www.w3.org/2000/svg"
   xmlns:svg="http://www.w3.org/2000/svg">
  <defs
     id="defs2" />
  <g
     id="layer1">
    <g
       id="g1377"
       style="fill:#0000ff;fill-opacity:1;stroke:#000000;stroke-opacity:1;stroke-width:1.000125;stroke-miterlimit:4;stroke-dasharray:none">
      <path
         style="fill:#0000ff;fill-rule:evenodd;stroke:#000000;stroke-width:1.000125;stroke-linecap:square;stroke-miterlimit:4;stroke-dasharray:none;fill-opacity:1;stroke-opacity:1"
         d="M 0.56126598,0.56126601 10.022067,10.022067 v 0"
         id="path1273" />
      <path
         style="fill:#0000ff;fill-rule:evenodd;stroke:#000000;stroke-width:1.000125;stroke-linecap:square;stroke-miterlimit:4;stroke-dasharray:none;fill-opacity:1;stroke-opacity:1"
         d="m 10.022067,0.561266 -9.46080102,9.460801 v 0"
         id="path1355" />
    </g>
    <path
       style="fill:#b3b3b3;fill-opacity:1;fill-rule:evenodd;stroke:none;stroke-width:3.00000004;stroke-linecap:square;stroke-miterlimit:4;stroke-dasharray:none;stroke-opacity:1"
       d="M 0.82896625,39.181755 -0.4668717,37.883891 8.4618408,28.955482 17.390553,20.027074 8.4407485,11.076968 -0.50905544,2.1268628 0.80787436,0.80787368 2.1248042,-0.51111544 11.075788,8.4395665 l 8.950983,8.9506815 8.929036,-8.928732 8.929036,-8.92873216 1.296698,1.29669851 1.296699,1.29669865 -8.928732,8.929036 -8.928732,8.929035 8.928738,8.929041 8.928737,8.929041 -1.31811,1.318111 -1.31811,1.31811 -8.928739,-8.929042 -8.928738,-8.929042 -8.929875,8.929574 -8.9298748,8.929575 z"
       id="path1761"
       transform="scale(0.26458333)" />
  </g>
</svg>
